<svg xmlns="http://www.w3.org/2000/svg" xmlns:xlink="http://www.w3.org/1999/xlink" width="1080" zoomAndPan="magnify" viewBox="0 0 810 809.999993" height="1080" preserveAspectRatio="xMidYMid meet" version="1.0"><defs><clipPath id="0c1feda6c5"><path d="M 343.605469 68.675781 L 488.707031 68.675781 L 488.707031 96.570312 L 343.605469 96.570312 Z M 343.605469 68.675781 " clip-rule="nonzero"/></clipPath><clipPath id="ff7b59132d"><path d="M 345.976562 87.75 C 355.726562 83.476562 357.074219 83.175781 358.800781 82.949219 C 360.75 82.648438 362.398438 82.949219 365.023438 82.648438 C 369.75 82.125 380.324219 80.476562 384.824219 79.050781 C 387.226562 78.300781 388.273438 77.625 390.226562 76.5 C 392.773438 75.074219 395.773438 72.074219 398.476562 70.875 C 400.574219 69.824219 401.699219 69.449219 404.773438 69.074219 C 412.273438 68.101562 431.476562 70.273438 444.75 70.273438 C 457.726562 70.199219 477.675781 68.101562 483.375 68.925781 C 485.023438 69.148438 485.699219 69.375 486.523438 69.976562 C 487.425781 70.648438 488.175781 71.699219 488.398438 72.75 C 488.699219 73.726562 488.625 75.074219 488.25 76.050781 C 487.875 77.023438 487.050781 78.148438 486.074219 78.601562 C 484.875 79.199219 482.476562 79.5 481.199219 78.898438 C 479.851562 78.300781 478.425781 76.425781 478.199219 75 C 477.976562 73.574219 478.875 71.324219 479.773438 70.351562 C 480.523438 69.523438 481.726562 69 482.851562 68.925781 C 484.199219 68.925781 486.375 69.824219 487.351562 70.726562 C 488.175781 71.550781 488.550781 72.824219 488.625 73.875 C 488.625 74.925781 488.398438 76.199219 487.726562 77.101562 C 486.824219 78.148438 485.324219 78.898438 483.375 79.351562 C 479.925781 80.25 471.976562 78.898438 468.226562 79.273438 C 466.050781 79.574219 465.75 80.25 463.050781 80.550781 C 454.425781 81.449219 416.324219 78.824219 407.699219 79.351562 C 405 79.5 404.324219 79.351562 402.449219 80.101562 C 399.75 81.148438 396.074219 84.675781 393.523438 86.101562 C 391.648438 87.148438 390.375 87.675781 388.574219 88.351562 C 386.699219 89.023438 385.199219 89.550781 382.425781 90.148438 C 376.949219 91.199219 363.976562 91.574219 357.75 93 C 353.851562 93.976562 350.699219 96.375 348.449219 96.449219 C 347.175781 96.449219 346.125 96 345.375 95.398438 C 344.550781 94.726562 343.875 93.449219 343.726562 92.550781 C 343.574219 91.726562 343.574219 91.050781 343.875 90.300781 C 344.25 89.398438 345.976562 87.75 345.976562 87.75 " clip-rule="nonzero"/></clipPath><clipPath id="1d8a9454b0"><path d="M 0.605469 0.675781 L 145.707031 0.675781 L 145.707031 28.480469 L 0.605469 28.480469 Z M 0.605469 0.675781 " clip-rule="nonzero"/></clipPath><clipPath id="282a72c4a1"><path d="M 2.976562 19.75 C 12.726562 15.476562 14.074219 15.175781 15.800781 14.949219 C 17.75 14.648438 19.398438 14.949219 22.023438 14.648438 C 26.75 14.125 37.324219 12.476562 41.824219 11.050781 C 44.226562 10.300781 45.273438 9.625 47.226562 8.5 C 49.773438 7.074219 52.773438 4.074219 55.476562 2.875 C 57.574219 1.824219 58.699219 1.449219 61.773438 1.074219 C 69.273438 0.101562 88.476562 2.273438 101.75 2.273438 C 114.726562 2.199219 134.675781 0.101562 140.375 0.925781 C 142.023438 1.148438 142.699219 1.375 143.523438 1.976562 C 144.425781 2.648438 145.175781 3.699219 145.398438 4.75 C 145.699219 5.726562 145.625 7.074219 145.25 8.050781 C 144.875 9.023438 144.050781 10.148438 143.074219 10.601562 C 141.875 11.199219 139.476562 11.5 138.199219 10.898438 C 136.851562 10.300781 135.425781 8.425781 135.199219 7 C 134.976562 5.574219 135.875 3.324219 136.773438 2.351562 C 137.523438 1.523438 138.726562 1 139.851562 0.925781 C 141.199219 0.925781 143.375 1.824219 144.351562 2.726562 C 145.175781 3.550781 145.550781 4.824219 145.625 5.875 C 145.625 6.925781 145.398438 8.199219 144.726562 9.101562 C 143.824219 10.148438 142.324219 10.898438 140.375 11.351562 C 136.925781 12.25 128.976562 10.898438 125.226562 11.273438 C 123.050781 11.574219 122.75 12.25 120.050781 12.550781 C 111.425781 13.449219 73.324219 10.824219 64.699219 11.351562 C 62 11.5 61.324219 11.351562 59.449219 12.101562 C 56.75 13.148438 53.074219 16.675781 50.523438 18.101562 C 48.648438 19.148438 47.375 19.675781 45.574219 20.351562 C 43.699219 21.023438 42.199219 21.550781 39.425781 22.148438 C 33.949219 23.199219 20.976562 23.574219 14.75 25 C 10.851562 25.976562 7.699219 28.375 5.449219 28.449219 C 4.175781 28.449219 3.125 28 2.375 27.398438 C 1.550781 26.726562 0.875 25.449219 0.726562 24.550781 C 0.574219 23.726562 0.574219 23.050781 0.875 22.300781 C 1.25 21.398438 2.976562 19.75 2.976562 19.75 " clip-rule="nonzero"/></clipPath><clipPath id="b1ef39262f"><rect x="0" width="146" y="0" height="29"/></clipPath></defs><path fill="#000000" d="M 578.53125 571.082031 C 592.445312 603.261719 588.644531 636.800781 588.859375 669.933594 C 589.070312 702.964844 589.0625 736 588.835938 769.039062 C 588.648438 793.601562 568.871094 809.980469 546.066406 804.976562 C 530.164062 801.484375 518.992188 787.636719 518.953125 770.535156 C 518.855469 723.847656 518.683594 677.160156 519.164062 630.480469 C 519.402344 607.214844 512.550781 587.027344 496.835938 569.929688 C 486.71875 558.921875 483.035156 546.367188 488.453125 532.230469 C 493.707031 518.519531 504.433594 512.15625 518.863281 509.472656 C 545.324219 504.550781 572.1875 500.308594 597.710938 492.121094 C 656.664062 473.207031 691.1875 431.097656 703.785156 371.078125 C 711.507812 334.285156 715.101562 297.117188 705.667969 259.945312 C 699.585938 235.980469 688.230469 214.601562 671.351562 196.566406 C 659.011719 183.378906 656.058594 169.40625 662.167969 152.300781 C 671.269531 126.816406 672.203125 100.640625 665.5 72.664062 C 656.3125 75.792969 647.195312 77.777344 639.140625 81.859375 C 618.753906 92.191406 598.367188 102.6875 578.910156 114.636719 C 565.863281 122.648438 553.421875 125.039062 538.589844 121.203125 C 467.167969 102.71875 395.691406 102.746094 324.160156 121.292969 C 309.664062 125.050781 297.152344 123.203125 284.65625 114.738281 C 260.21875 98.183594 234.515625 83.867188 205.976562 75.390625 C 203.429688 74.632812 200.804688 74.132812 197.601562 73.367188 C 192.296875 92.898438 191.867188 112.039062 195.476562 131.222656 C 197.082031 139.757812 199.65625 148.144531 202.285156 156.4375 C 206.527344 169.792969 204.75 182.039062 195.242188 192.316406 C 164.105469 225.957031 150.28125 265.660156 152.09375 311.253906 C 153.347656 342.785156 157.171875 373.792969 168.929688 403.347656 C 187.980469 451.25 224.292969 480.308594 272.351562 494.925781 C 294.925781 501.789062 318.417969 505.949219 341.730469 509.949219 C 365.402344 514.007812 379.40625 528.554688 376.277344 550 C 375.28125 556.847656 371.738281 564.273438 367.144531 569.476562 C 350.542969 588.300781 343.457031 609.722656 343.835938 634.734375 C 344.523438 679.773438 344.171875 724.828125 344 769.875 C 343.921875 790.550781 329.117188 805.800781 309.578125 806.0625 C 289.914062 806.324219 274.71875 790.714844 274.515625 769.671875 C 274.332031 750.0625 274.476562 730.445312 274.476562 711.863281 C 256.625 711.863281 239.488281 712.785156 222.484375 711.679688 C 181.921875 709.039062 148.148438 691.351562 120.605469 661.980469 C 108.121094 648.667969 96.921875 634.136719 85.28125 620.046875 C 75.660156 608.410156 65.667969 598.089844 50.464844 592.828125 C 33.605469 586.996094 25.894531 566.953125 31.707031 550.019531 C 37.675781 532.632812 55.722656 523.0625 73.625 527.660156 C 96.75 533.59375 114.796875 547.316406 130.070312 564.957031 C 141.136719 577.746094 151.761719 590.933594 162.214844 604.234375 C 191.484375 641.46875 229.675781 649.203125 273.480469 638.722656 C 274.296875 627.070312 274.40625 615.59375 276.097656 604.351562 C 277.746094 593.375 281.007812 582.636719 283.621094 571.535156 C 271.15625 567.730469 258.0625 564.210938 245.292969 559.765625 C 151.90625 527.253906 101.203125 459.902344 86.769531 363.683594 C 81.082031 325.761719 79.144531 287.667969 87.90625 249.75 C 94.875 219.570312 107.34375 191.9375 125.765625 167.074219 C 128.9375 162.792969 130.066406 159 128.855469 153.660156 C 119.019531 110.355469 122.589844 68.042969 139.117188 26.847656 C 145.980469 9.742188 157.324219 2.863281 175.605469 2.011719 C 218.753906 -0.0078125 256.433594 16.558594 291.890625 37.820312 C 308.886719 48.007812 323.910156 49.847656 342.867188 46.082031 C 407.621094 33.214844 472.550781 35.085938 537.050781 48.976562 C 544.488281 50.578125 550.210938 49.839844 556.792969 45.8125 C 588.789062 26.214844 622.113281 9.320312 659.652344 3.371094 C 671.117188 1.554688 683.125 1.550781 694.714844 2.601562 C 708.539062 3.851562 718.09375 12.226562 723.359375 25.21875 C 740.363281 67.144531 744.195312 110.148438 734.460938 154.421875 C 733.710938 157.839844 734.558594 162.699219 736.589844 165.484375 C 770.726562 212.269531 784.023438 264.761719 780.527344 322.089844 C 778.207031 360.160156 772.34375 397.46875 757.429688 432.859375 C 729.222656 499.792969 678.074219 540.707031 610.011719 562.207031 C 599.933594 565.386719 589.664062 567.960938 578.53125 571.082031 Z M 578.53125 571.082031 " fill-opacity="1" fill-rule="nonzero"/><g clip-path="url(#0c1feda6c5)"><g clip-path="url(#ff7b59132d)"><g transform="matrix(1, 0, 0, 1, 343, 68)"><g clip-path="url(#b1ef39262f)"><g clip-path="url(#1d8a9454b0)"><g clip-path="url(#282a72c4a1)"><rect x="-521.2" width="1166.4" fill="#000000" height="1166.39999" y="-246.199998" fill-opacity="1"/></g></g></g></g></g></g></svg>