<svg xmlns="http://www.w3.org/2000/svg" xmlns:xlink="http://www.w3.org/1999/xlink" width="1080" zoomAndPan="magnify" viewBox="0 0 810 809.999993" height="1080" preserveAspectRatio="xMidYMid meet" version="1.0"><path fill="#000000" d="M 809.335938 462.226562 L 809.335938 700.902344 C 809.335938 702.851562 809.242188 704.796875 809.050781 706.734375 C 808.859375 708.675781 808.574219 710.601562 808.191406 712.515625 C 807.8125 714.429688 807.339844 716.316406 806.773438 718.183594 C 806.207031 720.050781 805.550781 721.882812 804.804688 723.683594 C 804.058594 725.484375 803.226562 727.246094 802.308594 728.964844 C 801.390625 730.683594 800.386719 732.355469 799.304688 733.976562 C 798.222656 735.597656 797.0625 737.164062 795.824219 738.671875 C 794.589844 740.175781 793.28125 741.621094 791.902344 743 C 790.523438 744.378906 789.082031 745.6875 787.574219 746.921875 C 786.066406 748.160156 784.503906 749.320312 782.882812 750.402344 C 781.261719 751.488281 779.59375 752.488281 777.871094 753.40625 C 776.152344 754.324219 774.394531 755.160156 772.59375 755.90625 C 770.789062 756.652344 768.957031 757.308594 767.09375 757.875 C 765.226562 758.4375 763.335938 758.914062 761.425781 759.292969 C 759.515625 759.671875 757.585938 759.960938 755.648438 760.148438 C 753.707031 760.339844 751.761719 760.4375 749.8125 760.4375 L 58.859375 760.4375 C 56.910156 760.4375 54.964844 760.339844 53.027344 760.148438 C 51.085938 759.960938 49.160156 759.671875 47.25 759.292969 C 45.335938 758.914062 43.449219 758.4375 41.582031 757.875 C 39.714844 757.308594 37.882812 756.652344 36.082031 755.90625 C 34.28125 755.160156 32.519531 754.324219 30.800781 753.40625 C 29.082031 752.488281 27.414062 751.488281 25.792969 750.402344 C 24.171875 749.320312 22.605469 748.160156 21.097656 746.921875 C 19.59375 745.6875 18.148438 744.378906 16.769531 743 C 15.394531 741.621094 14.085938 740.175781 12.847656 738.671875 C 11.613281 737.164062 10.453125 735.597656 9.367188 733.976562 C 8.285156 732.355469 7.285156 730.683594 6.367188 728.964844 C 5.445312 727.246094 4.613281 725.484375 3.867188 723.683594 C 3.121094 721.882812 2.464844 720.050781 1.898438 718.183594 C 1.335938 716.316406 0.859375 714.429688 0.480469 712.515625 C 0.101562 710.601562 -0.183594 708.675781 -0.375 706.734375 C -0.566406 704.796875 -0.664062 702.851562 -0.664062 700.902344 L -0.664062 462.226562 L 309.019531 462.226562 C 309.152344 463.695312 309.320312 465.160156 309.523438 466.621094 C 309.726562 468.082031 309.960938 469.539062 310.230469 470.992188 C 310.5 472.441406 310.804688 473.886719 311.140625 475.324219 C 311.476562 476.761719 311.847656 478.1875 312.25 479.609375 C 312.652344 481.027344 313.085938 482.4375 313.554688 483.835938 C 314.019531 485.238281 314.519531 486.625 315.050781 488.003906 C 315.582031 489.378906 316.144531 490.742188 316.742188 492.09375 C 317.335938 493.445312 317.960938 494.78125 318.617188 496.101562 C 319.273438 497.421875 319.960938 498.730469 320.679688 500.019531 C 321.394531 501.308594 322.140625 502.582031 322.917969 503.835938 C 323.691406 505.09375 324.496094 506.328125 325.328125 507.546875 C 326.164062 508.765625 327.023438 509.964844 327.910156 511.140625 C 328.800781 512.320312 329.714844 513.476562 330.65625 514.613281 C 331.597656 515.75 332.566406 516.863281 333.558594 517.953125 C 334.550781 519.046875 335.570312 520.113281 336.613281 521.160156 C 337.65625 522.203125 338.722656 523.222656 339.8125 524.21875 C 340.902344 525.210938 342.011719 526.179688 343.148438 527.125 C 344.28125 528.066406 345.4375 528.984375 346.617188 529.875 C 347.792969 530.765625 348.988281 531.625 350.207031 532.460938 C 351.421875 533.296875 352.660156 534.101562 353.914062 534.878906 C 355.167969 535.65625 356.4375 536.40625 357.726562 537.125 C 359.015625 537.84375 360.320312 538.53125 361.640625 539.1875 C 362.960938 539.847656 364.296875 540.476562 365.644531 541.070312 C 366.996094 541.667969 368.359375 542.234375 369.734375 542.765625 C 371.109375 543.300781 372.496094 543.800781 373.894531 544.269531 C 375.292969 544.742188 376.703125 545.175781 378.121094 545.582031 C 379.542969 545.984375 380.96875 546.355469 382.40625 546.695312 C 383.839844 547.03125 385.285156 547.339844 386.734375 547.609375 C 388.1875 547.878906 389.640625 548.117188 391.101562 548.324219 C 392.5625 548.527344 394.027344 548.695312 395.5 548.832031 C 396.96875 548.96875 398.4375 549.070312 399.914062 549.140625 C 401.386719 549.207031 402.863281 549.242188 404.335938 549.242188 C 405.8125 549.242188 407.289062 549.207031 408.761719 549.140625 C 410.234375 549.070312 411.707031 548.96875 413.175781 548.832031 C 414.644531 548.695312 416.109375 548.527344 417.570312 548.324219 C 419.03125 548.117188 420.488281 547.878906 421.9375 547.609375 C 423.390625 547.339844 424.832031 547.03125 426.269531 546.695312 C 427.703125 546.355469 429.132812 545.984375 430.550781 545.582031 C 431.972656 545.175781 433.378906 544.742188 434.777344 544.269531 C 436.175781 543.800781 437.566406 543.300781 438.941406 542.765625 C 440.316406 542.234375 441.679688 541.667969 443.027344 541.070312 C 444.378906 540.476562 445.710938 539.847656 447.035156 539.1875 C 448.355469 538.53125 449.660156 537.84375 450.949219 537.125 C 452.234375 536.40625 453.507812 535.65625 454.761719 534.878906 C 456.015625 534.101562 457.25 533.296875 458.46875 532.460938 C 459.683594 531.625 460.882812 530.765625 462.058594 529.875 C 463.234375 528.984375 464.390625 528.066406 465.527344 527.125 C 466.660156 526.179688 467.773438 525.210938 468.863281 524.21875 C 469.953125 523.222656 471.019531 522.203125 472.0625 521.160156 C 473.105469 520.113281 474.121094 519.046875 475.117188 517.953125 C 476.109375 516.863281 477.078125 515.75 478.019531 514.613281 C 478.960938 513.476562 479.875 512.320312 480.761719 511.140625 C 481.652344 509.964844 482.511719 508.765625 483.34375 507.546875 C 484.175781 506.328125 484.980469 505.09375 485.757812 503.835938 C 486.535156 502.582031 487.28125 501.308594 487.996094 500.019531 C 488.714844 498.730469 489.398438 497.421875 490.054688 496.101562 C 490.714844 494.78125 491.339844 493.445312 491.933594 492.09375 C 492.527344 490.742188 493.089844 489.378906 493.621094 488.003906 C 494.15625 486.625 494.652344 485.238281 495.121094 483.839844 C 495.589844 482.4375 496.023438 481.027344 496.425781 479.609375 C 496.828125 478.1875 497.199219 476.761719 497.535156 475.324219 C 497.871094 473.886719 498.171875 472.441406 498.441406 470.992188 C 498.710938 469.539062 498.949219 468.082031 499.148438 466.621094 C 499.351562 465.160156 499.519531 463.695312 499.65625 462.226562 Z M 809.335938 462.226562 " fill-opacity="1" fill-rule="nonzero"/><path fill="#000000" d="M 470.621094 361.980469 L 470.621094 453.605469 C 470.824219 456.566406 470.824219 459.527344 470.621094 462.488281 C 470.371094 464.46875 470.03125 466.433594 469.601562 468.382812 C 469.171875 470.332031 468.652344 472.257812 468.050781 474.164062 C 467.449219 476.066406 466.761719 477.9375 465.988281 479.777344 C 465.214844 481.617188 464.363281 483.421875 463.425781 485.183594 C 462.492188 486.945312 461.480469 488.664062 460.386719 490.335938 C 459.296875 492.007812 458.136719 493.628906 456.898438 495.195312 C 455.664062 496.761719 454.359375 498.269531 452.984375 499.71875 C 451.613281 501.167969 450.175781 502.550781 448.679688 503.871094 C 447.183594 505.191406 445.628906 506.441406 444.015625 507.621094 C 442.40625 508.796875 440.746094 509.902344 439.035156 510.929688 C 437.328125 511.960938 435.574219 512.910156 433.777344 513.78125 C 431.980469 514.652344 430.148438 515.441406 428.285156 516.144531 C 426.417969 516.851562 424.519531 517.46875 422.597656 518.003906 C 420.675781 518.539062 418.730469 518.984375 416.769531 519.34375 C 414.804688 519.699219 412.828125 519.96875 410.84375 520.148438 C 408.855469 520.328125 406.863281 520.417969 404.867188 520.417969 C 402.871094 520.417969 400.878906 520.328125 398.890625 520.148438 C 396.90625 519.96875 394.929688 519.699219 392.964844 519.34375 C 391.003906 518.984375 389.058594 518.539062 387.136719 518.003906 C 385.214844 517.46875 383.320312 516.851562 381.453125 516.144531 C 379.585938 515.441406 377.753906 514.652344 375.957031 513.78125 C 374.160156 512.910156 372.40625 511.960938 370.699219 510.929688 C 368.988281 509.902344 367.328125 508.796875 365.71875 507.621094 C 364.105469 506.441406 362.554688 505.191406 361.054688 503.871094 C 359.558594 502.550781 358.121094 501.167969 356.75 499.71875 C 355.378906 498.269531 354.074219 496.761719 352.835938 495.195312 C 351.601562 493.628906 350.4375 492.007812 349.347656 490.335938 C 348.257812 488.664062 347.242188 486.945312 346.308594 485.183594 C 345.375 483.421875 344.519531 481.617188 343.746094 479.777344 C 342.976562 477.9375 342.289062 476.066406 341.683594 474.164062 C 341.082031 472.257812 340.5625 470.332031 340.136719 468.382812 C 339.707031 466.433594 339.363281 464.46875 339.113281 462.488281 C 338.6875 459.542969 338.46875 456.582031 338.449219 453.605469 L 338.449219 361.980469 C 338.449219 361.433594 338.476562 360.886719 338.53125 360.34375 C 338.585938 359.796875 338.664062 359.257812 338.769531 358.722656 C 338.878906 358.183594 339.011719 357.65625 339.167969 357.132812 C 339.328125 356.605469 339.511719 356.09375 339.722656 355.585938 C 339.929688 355.082031 340.164062 354.585938 340.421875 354.105469 C 340.679688 353.621094 340.960938 353.152344 341.265625 352.699219 C 341.570312 352.242188 341.894531 351.804688 342.242188 351.382812 C 342.589844 350.957031 342.957031 350.554688 343.34375 350.167969 C 343.730469 349.78125 344.132812 349.414062 344.558594 349.066406 C 344.980469 348.71875 345.417969 348.394531 345.875 348.089844 C 346.328125 347.785156 346.796875 347.503906 347.28125 347.246094 C 347.761719 346.988281 348.257812 346.753906 348.761719 346.546875 C 349.265625 346.335938 349.78125 346.152344 350.304688 345.992188 C 350.828125 345.835938 351.359375 345.703125 351.894531 345.59375 C 352.433594 345.488281 352.972656 345.40625 353.515625 345.355469 C 354.0625 345.300781 354.605469 345.273438 355.152344 345.273438 L 454.582031 345.273438 C 455.648438 345.316406 456.703125 345.460938 457.746094 345.703125 C 458.785156 345.949219 459.792969 346.292969 460.769531 346.730469 C 461.746094 347.167969 462.667969 347.695312 463.542969 348.3125 C 464.417969 348.929688 465.226562 349.625 465.964844 350.394531 C 466.707031 351.167969 467.367188 352 467.949219 352.898438 C 468.527344 353.796875 469.019531 354.742188 469.417969 355.738281 C 469.816406 356.730469 470.117188 357.75 470.320312 358.800781 C 470.523438 359.851562 470.621094 360.910156 470.621094 361.980469 Z M 470.621094 361.980469 " fill-opacity="1" fill-rule="nonzero"/><path fill="#000000" d="M 749.8125 216.917969 L 603.191406 216.917969 L 603.191406 144.519531 C 603.1875 142.957031 603.148438 141.394531 603.070312 139.832031 C 602.992188 138.273438 602.875 136.714844 602.71875 135.15625 C 602.566406 133.601562 602.371094 132.050781 602.140625 130.503906 C 601.910156 128.957031 601.644531 127.417969 601.335938 125.886719 C 601.03125 124.351562 600.6875 122.828125 600.308594 121.3125 C 599.925781 119.792969 599.507812 118.289062 599.054688 116.792969 C 598.601562 115.296875 598.109375 113.8125 597.582031 112.339844 C 597.054688 110.867188 596.492188 109.410156 595.894531 107.964844 C 595.296875 106.519531 594.664062 105.09375 593.996094 103.679688 C 593.328125 102.265625 592.625 100.867188 591.890625 99.488281 C 591.152344 98.109375 590.382812 96.75 589.582031 95.410156 C 588.777344 94.066406 587.941406 92.746094 587.074219 91.445312 C 586.207031 90.144531 585.308594 88.867188 584.378906 87.609375 C 583.449219 86.355469 582.488281 85.121094 581.5 83.910156 C 580.507812 82.703125 579.488281 81.515625 578.441406 80.355469 C 577.390625 79.199219 576.316406 78.0625 575.210938 76.957031 C 574.109375 75.851562 572.976562 74.769531 571.820312 73.71875 C 570.664062 72.667969 569.484375 71.644531 568.277344 70.652344 C 567.070312 69.65625 565.839844 68.691406 564.585938 67.757812 C 563.332031 66.824219 562.058594 65.921875 560.757812 65.050781 C 559.460938 64.179688 558.144531 63.339844 556.804688 62.535156 C 555.464844 61.726562 554.109375 60.953125 552.730469 60.214844 C 551.355469 59.472656 549.960938 58.765625 548.546875 58.09375 C 547.136719 57.421875 545.710938 56.785156 544.269531 56.183594 C 542.824219 55.582031 541.371094 55.015625 539.898438 54.484375 C 538.429688 53.953125 536.945312 53.457031 535.453125 53 C 533.957031 52.539062 532.453125 52.117188 530.9375 51.734375 C 529.421875 51.347656 527.898438 51 526.367188 50.691406 C 524.835938 50.382812 523.296875 50.109375 521.75 49.875 C 520.207031 49.636719 518.65625 49.441406 517.101562 49.28125 C 515.546875 49.121094 513.988281 49 512.425781 48.917969 C 510.867188 48.835938 509.304688 48.792969 507.742188 48.785156 L 300.933594 48.785156 C 299.371094 48.792969 297.808594 48.835938 296.246094 48.917969 C 294.6875 49 293.128906 49.121094 291.574219 49.28125 C 290.019531 49.441406 288.46875 49.636719 286.921875 49.875 C 285.378906 50.109375 283.839844 50.382812 282.304688 50.691406 C 280.773438 51 279.25 51.347656 277.734375 51.734375 C 276.222656 52.117188 274.714844 52.539062 273.222656 53 C 271.726562 53.457031 270.246094 53.953125 268.773438 54.484375 C 267.304688 55.015625 265.847656 55.582031 264.40625 56.183594 C 262.964844 56.785156 261.535156 57.421875 260.125 58.09375 C 258.714844 58.765625 257.320312 59.472656 255.945312 60.214844 C 254.566406 60.953125 253.207031 61.726562 251.871094 62.535156 C 250.53125 63.339844 249.210938 64.179688 247.914062 65.050781 C 246.617188 65.921875 245.339844 66.824219 244.085938 67.757812 C 242.832031 68.691406 241.605469 69.65625 240.398438 70.652344 C 239.191406 71.644531 238.007812 72.667969 236.851562 73.71875 C 235.695312 74.769531 234.566406 75.851562 233.460938 76.957031 C 232.359375 78.0625 231.28125 79.199219 230.234375 80.355469 C 229.1875 81.515625 228.167969 82.703125 227.175781 83.910156 C 226.183594 85.121094 225.226562 86.355469 224.296875 87.609375 C 223.363281 88.867188 222.464844 90.144531 221.597656 91.445312 C 220.730469 92.746094 219.894531 94.066406 219.09375 95.410156 C 218.289062 96.75 217.519531 98.109375 216.785156 99.488281 C 216.046875 100.867188 215.347656 102.265625 214.679688 103.679688 C 214.007812 105.09375 213.375 106.519531 212.777344 107.964844 C 212.179688 109.410156 211.617188 110.867188 211.089844 112.339844 C 210.5625 113.8125 210.074219 115.296875 209.621094 116.792969 C 209.164062 118.289062 208.746094 119.792969 208.367188 121.3125 C 207.988281 122.828125 207.644531 124.351562 207.335938 125.886719 C 207.03125 127.417969 206.761719 128.957031 206.53125 130.503906 C 206.300781 132.050781 206.109375 133.601562 205.953125 135.15625 C 205.800781 136.714844 205.683594 138.273438 205.605469 139.832031 C 205.523438 141.394531 205.484375 142.957031 205.484375 144.519531 L 205.484375 216.917969 L 59.65625 216.917969 C 57.707031 216.914062 55.765625 217.003906 53.824219 217.191406 C 51.886719 217.378906 49.960938 217.660156 48.050781 218.039062 C 46.140625 218.414062 44.25 218.882812 42.386719 219.445312 C 40.519531 220.007812 38.6875 220.660156 36.886719 221.402344 C 35.085938 222.144531 33.328125 222.972656 31.605469 223.890625 C 29.886719 224.804688 28.21875 225.804688 26.597656 226.882812 C 24.976562 227.964844 23.410156 229.121094 21.902344 230.355469 C 20.398438 231.589844 18.953125 232.894531 17.574219 234.269531 C 16.195312 235.648438 14.886719 237.085938 13.652344 238.59375 C 12.414062 240.097656 11.253906 241.660156 10.167969 243.277344 C 9.085938 244.898438 8.085938 246.566406 7.164062 248.285156 C 6.246094 250 5.414062 251.757812 4.667969 253.558594 C 3.917969 255.359375 3.261719 257.191406 2.695312 259.054688 C 2.132812 260.917969 1.65625 262.804688 1.277344 264.71875 C 0.894531 266.628906 0.609375 268.554688 0.417969 270.492188 C 0.226562 272.429688 0.132812 274.375 0.132812 276.324219 L 0.132812 386.777344 L 308.621094 386.777344 L 308.621094 362.777344 C 308.621094 361.246094 308.695312 359.722656 308.847656 358.203125 C 308.996094 356.679688 309.21875 355.167969 309.519531 353.671875 C 309.816406 352.171875 310.1875 350.691406 310.632812 349.226562 C 311.074219 347.765625 311.589844 346.328125 312.175781 344.914062 C 312.757812 343.503906 313.410156 342.121094 314.132812 340.773438 C 314.851562 339.425781 315.636719 338.117188 316.484375 336.84375 C 317.335938 335.574219 318.246094 334.347656 319.214844 333.167969 C 320.183594 331.984375 321.207031 330.851562 322.289062 329.773438 C 323.371094 328.691406 324.5 327.667969 325.683594 326.695312 C 326.863281 325.726562 328.089844 324.816406 329.359375 323.96875 C 330.632812 323.117188 331.941406 322.332031 333.289062 321.613281 C 334.636719 320.894531 336.015625 320.238281 337.429688 319.65625 C 338.839844 319.070312 340.277344 318.554688 341.742188 318.113281 C 343.203125 317.667969 344.683594 317.296875 346.183594 317 C 347.679688 316.699219 349.191406 316.476562 350.710938 316.328125 C 352.234375 316.175781 353.757812 316.101562 355.285156 316.101562 L 453.386719 316.101562 C 454.917969 316.101562 456.441406 316.175781 457.960938 316.328125 C 459.484375 316.476562 460.992188 316.699219 462.492188 317 C 463.992188 317.296875 465.472656 317.667969 466.933594 318.113281 C 468.394531 318.554688 469.832031 319.070312 471.246094 319.65625 C 472.65625 320.238281 474.039062 320.894531 475.386719 321.613281 C 476.734375 322.332031 478.042969 323.117188 479.3125 323.96875 C 480.585938 324.816406 481.808594 325.726562 482.992188 326.695312 C 484.171875 327.667969 485.304688 328.691406 486.382812 329.773438 C 487.464844 330.851562 488.492188 331.984375 489.460938 333.167969 C 490.429688 334.347656 491.339844 335.574219 492.1875 336.84375 C 493.035156 338.117188 493.820312 339.425781 494.542969 340.773438 C 495.261719 342.121094 495.914062 343.503906 496.5 344.914062 C 497.085938 346.328125 497.597656 347.765625 498.042969 349.226562 C 498.488281 350.691406 498.859375 352.171875 499.15625 353.671875 C 499.453125 355.167969 499.679688 356.679688 499.828125 358.203125 C 499.976562 359.722656 500.050781 361.246094 500.050781 362.777344 L 500.050781 386.777344 L 809.335938 386.777344 L 809.335938 276.324219 C 809.335938 274.375 809.242188 272.429688 809.050781 270.492188 C 808.859375 268.554688 808.574219 266.628906 808.191406 264.71875 C 807.8125 262.804688 807.339844 260.917969 806.773438 259.054688 C 806.207031 257.191406 805.550781 255.359375 804.804688 253.558594 C 804.058594 251.757812 803.222656 250 802.304688 248.285156 C 801.386719 246.566406 800.382812 244.898438 799.300781 243.277344 C 798.214844 241.660156 797.054688 240.097656 795.820312 238.59375 C 794.582031 237.085938 793.273438 235.648438 791.894531 234.269531 C 790.515625 232.894531 789.074219 231.589844 787.566406 230.355469 C 786.058594 229.121094 784.496094 227.964844 782.875 226.882812 C 781.25 225.804688 779.582031 224.804688 777.863281 223.890625 C 776.144531 222.972656 774.382812 222.144531 772.582031 221.402344 C 770.78125 220.660156 768.949219 220.007812 767.082031 219.445312 C 765.21875 218.882812 763.328125 218.414062 761.417969 218.039062 C 759.507812 217.660156 757.582031 217.378906 755.644531 217.191406 C 753.703125 217.003906 751.761719 216.914062 749.8125 216.917969 Z M 265.535156 144.519531 C 265.542969 143.363281 265.601562 142.207031 265.71875 141.054688 C 265.835938 139.902344 266.007812 138.757812 266.238281 137.621094 C 266.46875 136.488281 266.75 135.367188 267.089844 134.257812 C 267.429688 133.152344 267.820312 132.0625 268.265625 130.992188 C 268.710938 129.921875 269.207031 128.878906 269.753906 127.855469 C 270.300781 126.835938 270.898438 125.84375 271.542969 124.882812 C 272.1875 123.917969 272.875 122.992188 273.613281 122.097656 C 274.347656 121.199219 275.125 120.34375 275.941406 119.523438 C 276.761719 118.707031 277.617188 117.929688 278.511719 117.195312 C 279.40625 116.457031 280.335938 115.769531 281.300781 115.125 C 282.261719 114.480469 283.253906 113.882812 284.273438 113.335938 C 285.292969 112.789062 286.339844 112.292969 287.40625 111.847656 C 288.476562 111.402344 289.566406 111.007812 290.671875 110.671875 C 291.78125 110.332031 292.902344 110.046875 294.035156 109.820312 C 295.171875 109.589844 296.316406 109.417969 297.46875 109.300781 C 298.621094 109.183594 299.773438 109.121094 300.933594 109.117188 L 507.742188 109.117188 C 508.898438 109.121094 510.054688 109.183594 511.207031 109.300781 C 512.359375 109.417969 513.503906 109.589844 514.636719 109.820312 C 515.773438 110.046875 516.894531 110.332031 518 110.671875 C 519.109375 111.007812 520.199219 111.402344 521.265625 111.847656 C 522.335938 112.292969 523.378906 112.789062 524.402344 113.335938 C 525.421875 113.882812 526.414062 114.480469 527.375 115.125 C 528.335938 115.769531 529.265625 116.457031 530.160156 117.195312 C 531.054688 117.929688 531.914062 118.707031 532.730469 119.523438 C 533.550781 120.34375 534.328125 121.199219 535.0625 122.097656 C 535.796875 122.992188 536.488281 123.921875 537.132812 124.882812 C 537.777344 125.84375 538.371094 126.835938 538.917969 127.855469 C 539.464844 128.878906 539.960938 129.921875 540.40625 130.992188 C 540.851562 132.0625 541.246094 133.152344 541.582031 134.257812 C 541.921875 135.367188 542.207031 136.488281 542.433594 137.621094 C 542.664062 138.757812 542.835938 139.902344 542.957031 141.054688 C 543.074219 142.207031 543.132812 143.363281 543.136719 144.519531 L 543.136719 216.917969 L 265.535156 216.917969 Z M 265.535156 144.519531 " fill-opacity="1" fill-rule="nonzero"/></svg>