<svg xmlns="http://www.w3.org/2000/svg" xmlns:xlink="http://www.w3.org/1999/xlink" width="1080" zoomAndPan="magnify" viewBox="0 0 810 809.999993" height="1080" preserveAspectRatio="xMidYMid meet" version="1.0"><defs><clipPath id="4670eb060b"><path d="M 7 367 L 802 367 L 802 443.972656 L 7 443.972656 Z M 7 367 " clip-rule="nonzero"/></clipPath></defs><g clip-path="url(#4670eb060b)"><path fill="#000000" d="M 18.367188 426.078125 C 29.390625 404.007812 53.832031 391.023438 78.230469 391.988281 C 105.164062 393.035156 123.003906 414.316406 143.285156 429.144531 C 153.664062 436.730469 165.414062 442.707031 178.472656 443.308594 C 194.59375 444.058594 209.28125 435.894531 221.824219 426.617188 C 244.917969 409.515625 267.28125 385.835938 296.785156 380.671875 C 323.695312 375.957031 348.09375 393.015625 371.035156 404.222656 C 382.699219 409.921875 394.792969 414.828125 407.832031 416.179688 C 422.28125 417.679688 435.875 413.160156 448.183594 405.808594 C 462.140625 397.496094 474.664062 387.421875 490.402344 382.496094 C 505.304688 377.824219 521.425781 377.265625 535.941406 383.585938 C 564.675781 396.121094 586.953125 428.609375 621.644531 424.601562 C 635.324219 423.015625 646.128906 415.214844 656.636719 406.921875 C 665.34375 400.042969 675.226562 391 686.957031 390.59375 C 702.308594 390.035156 714.828125 403.195312 727.953125 409.34375 C 742.339844 416.09375 758.226562 419.542969 774.136719 419.136719 C 782.070312 418.945312 790.003906 417.765625 797.679688 415.75 C 804.96875 413.84375 801.882812 402.550781 794.570312 404.457031 C 779.023438 408.53125 762.6875 408.402344 747.183594 404.09375 C 739.660156 401.996094 732.519531 398.929688 725.785156 394.945312 C 719.054688 390.957031 712.46875 386.136719 705.160156 382.878906 C 691.886719 376.988281 678.570312 378.1875 666.179688 385.535156 C 655.15625 392.074219 646.214844 401.585938 635.066406 407.972656 C 604.769531 425.308594 576.980469 394.558594 553.246094 379.664062 C 539.265625 370.902344 523.59375 366.078125 506.996094 367.410156 C 490.402344 368.738281 475.585938 374.523438 461.925781 383.007812 C 448.269531 391.496094 436.304688 401.824219 420.632812 404.285156 C 408.582031 406.195312 396.316406 402.679688 385.339844 397.988281 C 360.660156 387.421875 337.953125 370.195312 310.316406 368.328125 C 279.609375 366.273438 254.007812 386.371094 231.390625 404.394531 C 219.296875 414.015625 206.796875 425.351562 191.722656 429.894531 C 178.730469 433.792969 166.464844 430.257812 155.316406 423.1875 C 133.121094 409.128906 116.078125 386.371094 88.933594 381.464844 C 63.757812 376.902344 36.3125 385.730469 18.96875 404.671875 C 14.722656 409.324219 11.078125 414.507812 8.269531 420.144531 C 4.925781 426.871094 15 432.785156 18.367188 426.058594 Z M 18.367188 426.078125 " fill-opacity="1" fill-rule="nonzero"/></g></svg>