<svg xmlns="http://www.w3.org/2000/svg" xmlns:xlink="http://www.w3.org/1999/xlink" width="1080" zoomAndPan="magnify" viewBox="0 0 810 809.999993" height="1080" preserveAspectRatio="xMidYMid meet" version="1.0"><defs><clipPath id="66bbdaa8e6"><path d="M 0 378.226562 L 810 378.226562 L 810 473.476562 L 0 473.476562 Z M 0 378.226562 " clip-rule="nonzero"/></clipPath></defs><g clip-path="url(#66bbdaa8e6)"><path fill="#977ef2" d="M 104.761719 378.1875 C 135.457031 378.1875 151.863281 394.378906 162.710938 405.09375 C 171.449219 413.714844 173.503906 415.257812 179.851562 415.257812 C 186.195312 415.257812 188.25 413.714844 196.980469 405.09375 C 207.835938 394.378906 224.230469 378.1875 254.925781 378.1875 C 285.613281 378.1875 302.015625 394.378906 312.863281 405.09375 C 321.605469 413.714844 323.660156 415.257812 330.003906 415.257812 C 336.347656 415.257812 338.402344 413.714844 347.132812 405.09375 C 357.988281 394.378906 374.386719 378.1875 405.082031 378.1875 C 435.765625 378.1875 452.171875 394.378906 463.015625 405.09375 C 471.75 413.714844 473.8125 415.257812 480.148438 415.257812 C 486.480469 415.257812 488.546875 413.714844 497.277344 405.09375 C 508.125 394.378906 524.527344 378.1875 555.214844 378.1875 C 585.898438 378.1875 602.292969 394.378906 613.152344 405.09375 C 621.882812 413.714844 623.945312 415.257812 630.269531 415.257812 C 636.617188 415.257812 638.671875 413.714844 647.410156 405.09375 C 658.257812 394.378906 674.652344 378.1875 705.347656 378.1875 C 736.035156 378.1875 752.4375 394.378906 763.292969 405.09375 C 772.015625 413.714844 774.082031 415.257812 780.414062 415.257812 C 796.457031 415.257812 809.457031 428.257812 809.457031 444.289062 C 809.457031 460.332031 796.457031 473.335938 780.414062 473.335938 C 749.730469 473.335938 733.335938 457.140625 722.476562 446.425781 C 713.746094 437.804688 711.683594 436.265625 705.347656 436.265625 C 699.003906 436.265625 696.949219 437.804688 688.21875 446.425781 C 677.363281 457.140625 660.964844 473.335938 630.269531 473.335938 C 599.585938 473.335938 583.191406 457.140625 572.335938 446.425781 C 563.613281 437.804688 561.550781 436.265625 555.214844 436.265625 C 548.878906 436.265625 546.816406 437.804688 538.09375 446.425781 C 527.238281 457.140625 510.84375 473.335938 480.148438 473.335938 C 449.460938 473.335938 433.058594 457.140625 422.210938 446.425781 C 413.480469 437.804688 411.414062 436.265625 405.082031 436.265625 C 398.734375 436.265625 396.671875 437.804688 387.949219 446.425781 C 377.09375 457.140625 360.6875 473.335938 330.003906 473.335938 C 299.308594 473.335938 282.914062 457.140625 272.058594 446.425781 C 263.324219 437.804688 261.269531 436.265625 254.925781 436.265625 C 248.582031 436.265625 246.527344 437.804688 237.796875 446.425781 C 226.941406 457.140625 210.546875 473.335938 179.851562 473.335938 C 149.15625 473.335938 132.757812 457.140625 121.902344 446.425781 C 113.171875 437.804688 111.109375 436.265625 104.761719 436.265625 C 98.417969 436.265625 96.363281 437.804688 87.621094 446.425781 C 76.777344 457.140625 60.371094 473.335938 29.6875 473.335938 C 13.644531 473.335938 0.640625 460.332031 0.640625 444.289062 C 0.640625 428.257812 13.644531 415.257812 29.6875 415.257812 C 36.019531 415.257812 38.085938 413.714844 46.828125 405.09375 C 57.671875 394.378906 74.078125 378.1875 104.761719 378.1875 " fill-opacity="1" fill-rule="nonzero"/></g></svg>