<svg xmlns="http://www.w3.org/2000/svg" xmlns:xlink="http://www.w3.org/1999/xlink" width="1080" zoomAndPan="magnify" viewBox="0 0 810 809.999993" height="1080" preserveAspectRatio="xMidYMid meet" version="1.0"><defs><clipPath id="f4234e8bf6"><path d="M 3.5625 83.023438 L 806.4375 83.023438 L 806.4375 727.269531 L 3.5625 727.269531 Z M 3.5625 83.023438 " clip-rule="nonzero"/></clipPath></defs><g clip-path="url(#f4234e8bf6)"><path fill="#000000" d="M 707.621094 652.316406 L 101.574219 652.316406 C 83.433594 652.316406 67.800781 634.167969 67.800781 611.929688 L 67.800781 200.84375 L 385.667969 442.234375 C 386.472656 443.039062 386.472656 443.039062 387.308594 443.039062 C 388.113281 443.039062 388.113281 443.878906 388.949219 443.878906 C 391.425781 445.519531 393.902344 446.355469 396.347656 447.160156 C 399.660156 447.996094 402.136719 448.800781 405.417969 448.800781 C 408.699219 448.800781 411.175781 447.996094 414.488281 447.160156 L 415.292969 447.160156 C 417.769531 446.355469 420.246094 445.519531 422.722656 443.878906 C 423.527344 443.878906 423.527344 443.039062 424.363281 443.039062 C 425.167969 443.039062 425.167969 442.234375 426.003906 442.234375 L 742.199219 200.84375 L 742.199219 611.125 C 741.394531 634.167969 726.566406 652.316406 707.621094 652.316406 Z M 659.855469 158.007812 L 404.582031 353.253906 L 149.308594 158.007812 Z M 707.621094 83.023438 L 101.574219 83.023438 C 47.214844 83.023438 3.5625 134.933594 3.5625 199.199219 L 3.5625 611.125 C 3.5625 674.554688 48.015625 727.269531 101.574219 727.269531 L 708.457031 727.269531 C 761.984375 727.269531 806.4375 675.359375 806.4375 611.125 L 806.4375 199.199219 C 805.632812 134.933594 761.984375 83.023438 707.621094 83.023438 " fill-opacity="1" fill-rule="nonzero"/></g></svg>