<svg xmlns="http://www.w3.org/2000/svg" xmlns:xlink="http://www.w3.org/1999/xlink" width="1080" zoomAndPan="magnify" viewBox="0 0 810 809.999993" height="1080" preserveAspectRatio="xMidYMid meet" version="1.0"><defs><clipPath id="8515831515"><path d="M 53.753906 0 L 756.503906 0 L 756.503906 810 L 53.753906 810 Z M 53.753906 0 " clip-rule="nonzero"/></clipPath></defs><g clip-path="url(#8515831515)"><path fill="#000000" d="M 753.105469 284.308594 L 753.050781 284.230469 C 751.941406 282.148438 750.511719 280.179688 748.808594 278.371094 L 748.351562 277.910156 C 748.351562 277.910156 591.417969 121.039062 591.417969 121.039062 C 590.3125 119.203125 588.988281 117.503906 587.476562 115.964844 C 582.398438 110.863281 575.511719 108 568.300781 108 L 189.046875 108 C 174.136719 108 162.035156 120.097656 162.035156 135 L 162.035156 783 C 162.035156 797.902344 174.136719 810 189.046875 810 L 729.253906 810 C 744.164062 810 756.265625 797.902344 756.265625 783 L 756.265625 297 C 756.265625 292.410156 755.128906 288.089844 753.105469 284.308594 Z M 540.179688 296.8125 C 540.128906 304.019531 542.964844 310.933594 548.015625 316.035156 C 553.09375 321.136719 560.007812 324 567.191406 324 L 702.242188 324 C 702.242188 324 702.242188 756 702.242188 756 C 702.242188 756 216.058594 756 216.058594 756 C 216.058594 756 216.058594 162 216.058594 162 C 216.058594 162 541.101562 162 541.101562 162 C 541.101562 162 540.179688 296.8125 540.179688 296.8125 Z M 513.171875 0 L 81.003906 0 C 66.09375 0 53.996094 12.097656 53.996094 27 L 53.996094 675 C 53.996094 689.902344 66.09375 702 81.003906 702 C 95.914062 702 108.015625 689.902344 108.015625 675 L 108.015625 54 C 108.015625 54 513.171875 54 513.171875 54 C 528.082031 54 540.179688 41.902344 540.179688 27 C 540.179688 12.097656 528.082031 0 513.171875 0 Z M 297.089844 578.582031 L 594.203125 578.582031 C 609.113281 578.582031 621.210938 566.460938 621.210938 551.582031 C 621.210938 536.679688 609.113281 524.582031 594.203125 524.582031 L 297.089844 524.582031 C 282.179688 524.582031 270.078125 536.679688 270.078125 551.582031 C 270.078125 566.460938 282.179688 578.582031 297.089844 578.582031 Z M 297.089844 486 L 513.171875 486 C 528.082031 486 540.179688 473.902344 540.179688 459 C 540.179688 444.097656 528.082031 432 513.171875 432 L 297.089844 432 C 282.179688 432 270.078125 444.097656 270.078125 459 C 270.078125 473.902344 282.179688 486 297.089844 486 Z M 297.089844 393.417969 L 459.148438 393.417969 C 474.058594 393.417969 486.160156 381.320312 486.160156 366.417969 C 486.160156 351.539062 474.058594 339.417969 459.148438 339.417969 L 297.089844 339.417969 C 282.179688 339.417969 270.078125 351.539062 270.078125 366.417969 C 270.078125 381.320312 282.179688 393.417969 297.089844 393.417969 Z M 594.390625 270 L 664.050781 270 L 594.851562 200.851562 Z M 594.390625 270 " fill-opacity="1" fill-rule="evenodd"/></g></svg>