<svg xmlns="http://www.w3.org/2000/svg" xmlns:xlink="http://www.w3.org/1999/xlink" width="1080" zoomAndPan="magnify" viewBox="0 0 810 809.999993" height="1080" preserveAspectRatio="xMidYMid meet" version="1.0"><defs><clipPath id="8d1df1f2d0"><path d="M 0 391.769531 L 809.957031 391.769531 L 809.957031 476.914062 L 0 476.914062 Z M 0 391.769531 " clip-rule="nonzero"/></clipPath></defs><g clip-path="url(#8d1df1f2d0)"><path fill="#f26513" d="M 809.992188 476.914062 C 787.128906 476.914062 777.742188 456.40625 768.675781 436.574219 C 762.339844 422.730469 754.460938 405.503906 744.660156 405.503906 C 734.855469 405.503906 726.976562 422.726562 720.648438 436.570312 C 711.574219 456.402344 702.1875 476.914062 679.324219 476.914062 C 656.464844 476.914062 647.082031 456.40625 638.007812 436.570312 C 631.679688 422.730469 623.804688 405.503906 614.003906 405.503906 C 604.207031 405.503906 596.332031 422.726562 589.996094 436.570312 C 580.929688 456.402344 571.550781 476.914062 548.679688 476.914062 C 525.824219 476.914062 516.445312 456.402344 507.378906 436.570312 C 501.050781 422.726562 493.171875 405.503906 483.382812 405.503906 C 473.589844 405.503906 465.710938 422.726562 459.378906 436.570312 C 450.308594 456.40625 440.929688 476.914062 418.066406 476.914062 C 395.210938 476.914062 385.828125 456.40625 376.761719 436.570312 C 370.433594 422.726562 362.554688 405.503906 352.761719 405.503906 C 342.964844 405.503906 335.085938 422.730469 328.757812 436.570312 C 319.691406 456.40625 310.3125 476.914062 287.457031 476.914062 C 264.59375 476.914062 255.21875 456.40625 246.152344 436.570312 C 239.824219 422.726562 231.945312 405.503906 222.152344 405.503906 C 212.355469 405.503906 204.480469 422.726562 198.148438 436.570312 C 189.082031 456.40625 179.707031 476.914062 156.84375 476.914062 C 133.984375 476.914062 124.605469 456.40625 115.539062 436.570312 C 109.210938 422.726562 101.335938 405.503906 91.542969 405.503906 C 81.753906 405.503906 73.875 422.726562 67.546875 436.570312 C 58.480469 456.40625 49.105469 476.914062 26.25 476.914062 C 3.394531 476.914062 -5.980469 456.40625 -15.046875 436.570312 C -21.378906 422.730469 -29.253906 405.503906 -39.042969 405.503906 L -39.042969 391.769531 C -16.183594 391.769531 -6.808594 412.28125 2.257812 432.117188 C 8.585938 445.957031 16.460938 463.183594 26.25 463.183594 C 36.035156 463.183594 43.914062 445.957031 50.242188 432.113281 C 59.308594 412.277344 68.683594 391.769531 91.542969 391.769531 C 114.402344 391.769531 123.777344 412.277344 132.84375 432.113281 C 139.175781 445.957031 147.050781 463.183594 156.84375 463.183594 C 166.640625 463.183594 174.515625 445.957031 180.847656 432.113281 C 189.914062 412.277344 199.296875 391.769531 222.152344 391.769531 C 245.011719 391.769531 254.390625 412.277344 263.457031 432.113281 C 269.785156 445.957031 277.664062 463.183594 287.457031 463.183594 C 297.246094 463.183594 305.125 445.957031 311.453125 432.117188 C 320.519531 412.28125 329.898438 391.769531 352.761719 391.769531 C 375.621094 391.769531 385 412.277344 394.066406 432.113281 C 400.394531 445.957031 408.273438 463.183594 418.066406 463.183594 C 427.863281 463.183594 435.742188 445.957031 442.074219 432.113281 C 451.144531 412.277344 460.523438 391.769531 483.382812 391.769531 C 506.238281 391.769531 515.617188 412.277344 524.683594 432.113281 C 531.015625 445.957031 538.886719 463.183594 548.679688 463.183594 C 558.480469 463.183594 566.359375 445.957031 572.691406 432.109375 C 581.765625 412.277344 591.136719 391.769531 614.003906 391.769531 C 636.859375 391.769531 646.246094 412.277344 655.316406 432.113281 C 661.648438 445.957031 669.523438 463.183594 679.324219 463.183594 C 689.125 463.183594 697.007812 445.957031 703.34375 432.109375 C 712.410156 412.277344 721.792969 391.769531 744.660156 391.769531 C 767.523438 391.769531 776.90625 412.28125 785.980469 432.113281 C 792.308594 445.957031 800.191406 463.183594 809.992188 463.183594 L 809.992188 476.914062 " fill-opacity="1" fill-rule="nonzero"/></g></svg>