<svg xmlns="http://www.w3.org/2000/svg" xmlns:xlink="http://www.w3.org/1999/xlink" width="1080" zoomAndPan="magnify" viewBox="0 0 810 809.999993" height="1080" preserveAspectRatio="xMidYMid meet" version="1.0"><path fill="#000000" d="M 615.242188 212.742188 C 615.242188 216.203125 615.15625 219.660156 614.988281 223.113281 C 614.816406 226.570312 614.5625 230.015625 614.222656 233.460938 C 613.882812 236.902344 613.460938 240.332031 612.953125 243.753906 C 612.445312 247.175781 611.855469 250.582031 611.179688 253.976562 C 610.503906 257.367188 609.746094 260.742188 608.90625 264.097656 C 608.066406 267.453125 607.140625 270.785156 606.136719 274.09375 C 605.132812 277.402344 604.046875 280.6875 602.882812 283.945312 C 601.714844 287.199219 600.472656 290.425781 599.148438 293.621094 C 597.824219 296.816406 596.421875 299.980469 594.941406 303.105469 C 593.460938 306.230469 591.90625 309.320312 590.277344 312.371094 C 588.644531 315.421875 586.9375 318.429688 585.160156 321.398438 C 583.382812 324.363281 581.53125 327.285156 579.609375 330.160156 C 577.6875 333.035156 575.695312 335.863281 573.632812 338.640625 C 571.570312 341.421875 569.441406 344.144531 567.246094 346.820312 C 565.050781 349.492188 562.792969 352.113281 560.46875 354.675781 C 558.144531 357.238281 555.761719 359.742188 553.3125 362.1875 C 550.867188 364.632812 548.359375 367.015625 545.796875 369.339844 C 543.234375 371.664062 540.613281 373.921875 537.9375 376.117188 C 535.265625 378.308594 532.535156 380.4375 529.757812 382.496094 C 526.976562 384.558594 524.148438 386.550781 521.273438 388.472656 C 518.394531 390.394531 515.472656 392.242188 512.503906 394.019531 C 509.535156 395.800781 506.527344 397.503906 503.476562 399.132812 C 500.421875 400.765625 497.332031 402.320312 494.207031 403.796875 C 491.078125 405.277344 487.914062 406.679688 484.71875 408 C 481.519531 409.324219 478.292969 410.570312 475.035156 411.734375 C 471.777344 412.898438 468.492188 413.984375 465.179688 414.988281 C 461.871094 415.992188 458.535156 416.914062 455.179688 417.753906 C 451.824219 418.597656 448.449219 419.351562 445.054688 420.027344 C 441.660156 420.703125 438.25 421.292969 434.828125 421.800781 C 431.40625 422.308594 427.972656 422.734375 424.527344 423.070312 C 421.085938 423.410156 417.636719 423.664062 414.179688 423.835938 C 410.722656 424.003906 407.265625 424.089844 403.804688 424.089844 C 400.34375 424.089844 396.886719 424.003906 393.429688 423.835938 C 389.972656 423.664062 386.523438 423.410156 383.082031 423.070312 C 379.636719 422.734375 376.203125 422.308594 372.78125 421.800781 C 369.355469 421.292969 365.949219 420.703125 362.554688 420.027344 C 359.160156 419.351562 355.785156 418.597656 352.429688 417.753906 C 349.074219 416.914062 345.738281 415.992188 342.425781 414.988281 C 339.117188 413.984375 335.832031 412.898438 332.574219 411.734375 C 329.316406 410.570312 326.089844 409.324219 322.890625 408 C 319.695312 406.679688 316.53125 405.277344 313.402344 403.796875 C 310.277344 402.320312 307.183594 400.765625 304.132812 399.132812 C 301.082031 397.503906 298.070312 395.800781 295.105469 394.019531 C 292.136719 392.242188 289.214844 390.394531 286.335938 388.472656 C 283.460938 386.550781 280.632812 384.558594 277.851562 382.496094 C 275.070312 380.4375 272.34375 378.308594 269.671875 376.117188 C 266.996094 373.921875 264.375 371.664062 261.8125 369.339844 C 259.25 367.015625 256.742188 364.632812 254.296875 362.1875 C 251.847656 359.742188 249.464844 357.238281 247.140625 354.675781 C 244.816406 352.113281 242.554688 349.492188 240.363281 346.820312 C 238.167969 344.144531 236.039062 341.421875 233.976562 338.640625 C 231.914062 335.863281 229.921875 333.035156 228 330.160156 C 226.078125 327.285156 224.226562 324.363281 222.449219 321.398438 C 220.667969 318.429688 218.964844 315.421875 217.332031 312.371094 C 215.703125 309.320312 214.148438 306.230469 212.667969 303.105469 C 211.1875 299.980469 209.785156 296.816406 208.460938 293.621094 C 207.136719 290.425781 205.894531 287.199219 204.726562 283.945312 C 203.5625 280.6875 202.476562 277.402344 201.472656 274.09375 C 200.46875 270.785156 199.542969 267.453125 198.703125 264.097656 C 197.863281 260.742188 197.105469 257.367188 196.429688 253.976562 C 195.753906 250.582031 195.164062 247.175781 194.65625 243.753906 C 194.148438 240.332031 193.726562 236.902344 193.386719 233.460938 C 193.046875 230.015625 192.792969 226.570312 192.621094 223.113281 C 192.453125 219.660156 192.367188 216.203125 192.367188 212.742188 C 192.367188 209.285156 192.453125 205.828125 192.621094 202.375 C 192.792969 198.917969 193.046875 195.46875 193.386719 192.027344 C 193.726562 188.585938 194.148438 185.152344 194.65625 181.734375 C 195.164062 178.3125 195.753906 174.90625 196.429688 171.511719 C 197.105469 168.121094 197.863281 164.746094 198.703125 161.390625 C 199.542969 158.035156 200.46875 154.703125 201.472656 151.394531 C 202.476562 148.082031 203.5625 144.800781 204.726562 141.542969 C 205.894531 138.285156 207.136719 135.0625 208.460938 131.867188 C 209.785156 128.667969 211.1875 125.507812 212.667969 122.382812 C 214.148438 119.253906 215.703125 116.167969 217.332031 113.117188 C 218.964844 110.066406 220.667969 107.058594 222.449219 104.089844 C 224.226562 101.125 226.078125 98.203125 228 95.328125 C 229.921875 92.449219 231.914062 89.625 233.976562 86.84375 C 236.039062 84.066406 238.167969 81.339844 240.363281 78.667969 C 242.554688 75.992188 244.816406 73.375 247.140625 70.8125 C 249.464844 68.25 251.847656 65.746094 254.296875 63.300781 C 256.742188 60.855469 259.25 58.46875 261.8125 56.148438 C 264.375 53.824219 266.996094 51.566406 269.671875 49.371094 C 272.34375 47.175781 275.070312 45.050781 277.851562 42.988281 C 280.632812 40.929688 283.460938 38.9375 286.335938 37.015625 C 289.214844 35.09375 292.136719 33.246094 295.105469 31.464844 C 298.070312 29.6875 301.082031 27.984375 304.132812 26.355469 C 307.183594 24.722656 310.277344 23.167969 313.402344 21.691406 C 316.53125 20.210938 319.695312 18.808594 322.890625 17.484375 C 326.089844 16.164062 329.316406 14.917969 332.574219 13.753906 C 335.832031 12.585938 339.117188 11.503906 342.425781 10.5 C 345.738281 9.496094 349.074219 8.574219 352.429688 7.730469 C 355.785156 6.890625 359.160156 6.132812 362.554688 5.460938 C 365.949219 4.785156 369.359375 4.191406 372.78125 3.6875 C 376.203125 3.179688 379.636719 2.753906 383.082031 2.414062 C 386.523438 2.078125 389.972656 1.824219 393.429688 1.652344 C 396.886719 1.484375 400.34375 1.398438 403.804688 1.398438 C 407.265625 1.398438 410.722656 1.484375 414.179688 1.652344 C 417.636719 1.824219 421.085938 2.078125 424.527344 2.414062 C 427.972656 2.753906 431.40625 3.179688 434.828125 3.6875 C 438.25 4.191406 441.660156 4.785156 445.054688 5.460938 C 448.449219 6.132812 451.824219 6.890625 455.179688 7.730469 C 458.535156 8.574219 461.871094 9.496094 465.179688 10.5 C 468.492188 11.503906 471.777344 12.585938 475.035156 13.753906 C 478.292969 14.917969 481.519531 16.164062 484.71875 17.484375 C 487.914062 18.808594 491.078125 20.210938 494.207031 21.691406 C 497.332031 23.167969 500.421875 24.722656 503.476562 26.355469 C 506.527344 27.984375 509.535156 29.6875 512.503906 31.464844 C 515.472656 33.246094 518.394531 35.09375 521.273438 37.015625 C 524.148438 38.9375 526.976562 40.929688 529.757812 42.988281 C 532.535156 45.050781 535.265625 47.175781 537.9375 49.371094 C 540.613281 51.566406 543.234375 53.824219 545.796875 56.148438 C 548.359375 58.46875 550.867188 60.855469 553.3125 63.300781 C 555.761719 65.746094 558.144531 68.25 560.46875 70.8125 C 562.792969 73.375 565.050781 75.992188 567.246094 78.667969 C 569.441406 81.339844 571.570312 84.066406 573.632812 86.84375 C 575.695312 89.625 577.6875 92.449219 579.609375 95.328125 C 581.53125 98.203125 583.382812 101.125 585.160156 104.089844 C 586.9375 107.058594 588.644531 110.066406 590.277344 113.117188 C 591.90625 116.167969 593.460938 119.253906 594.941406 122.382812 C 596.421875 125.507812 597.824219 128.667969 599.148438 131.867188 C 600.472656 135.0625 601.714844 138.285156 602.882812 141.542969 C 604.046875 144.800781 605.132812 148.082031 606.136719 151.394531 C 607.140625 154.703125 608.066406 158.035156 608.90625 161.390625 C 609.746094 164.746094 610.503906 168.121094 611.179688 171.511719 C 611.855469 174.90625 612.445312 178.3125 612.953125 181.734375 C 613.460938 185.152344 613.882812 188.585938 614.222656 192.027344 C 614.5625 195.46875 614.816406 198.917969 614.988281 202.375 C 615.15625 205.828125 615.242188 209.285156 615.242188 212.742188 Z M 615.242188 212.742188 " fill-opacity="1" fill-rule="nonzero"/><path fill="#000000" d="M 119.648438 805.875 L 687.960938 805.875 C 690.023438 805.851562 692.082031 805.765625 694.140625 805.621094 C 696.195312 805.472656 698.246094 805.265625 700.289062 804.996094 C 702.335938 804.726562 704.367188 804.398438 706.390625 804.007812 C 708.417969 803.617188 710.425781 803.164062 712.425781 802.652344 C 714.421875 802.140625 716.402344 801.570312 718.363281 800.941406 C 720.328125 800.3125 722.269531 799.621094 724.191406 798.875 C 726.113281 798.128906 728.011719 797.328125 729.882812 796.464844 C 731.757812 795.605469 733.605469 794.691406 735.421875 793.71875 C 737.242188 792.75 739.027344 791.726562 740.785156 790.648438 C 742.542969 789.570312 744.265625 788.441406 745.957031 787.261719 C 747.644531 786.078125 749.296875 784.847656 750.914062 783.570312 C 752.53125 782.289062 754.105469 780.960938 755.640625 779.585938 C 757.179688 778.210938 758.671875 776.792969 760.121094 775.328125 C 761.574219 773.867188 762.980469 772.359375 764.339844 770.8125 C 765.703125 769.265625 767.015625 767.675781 768.28125 766.050781 C 769.546875 764.421875 770.761719 762.761719 771.925781 761.058594 C 773.09375 759.359375 774.207031 757.628906 775.269531 755.859375 C 776.332031 754.09375 777.339844 752.296875 778.292969 750.472656 C 779.25 748.644531 780.148438 746.792969 780.988281 744.910156 C 781.832031 743.03125 782.621094 741.125 783.347656 739.199219 C 784.078125 737.269531 784.75 735.324219 785.359375 733.355469 C 785.972656 731.386719 786.527344 729.402344 787.019531 727.402344 C 787.511719 725.402344 787.945312 723.386719 788.316406 721.359375 C 788.691406 719.335938 789 717.296875 789.25 715.253906 C 789.503906 713.207031 789.691406 711.15625 789.820312 709.097656 C 789.945312 707.042969 790.011719 704.984375 790.015625 702.921875 C 790.019531 700.863281 789.960938 698.804688 789.84375 696.746094 C 789.722656 694.6875 789.542969 692.636719 789.300781 690.589844 C 789.058594 688.542969 788.753906 686.507812 788.390625 684.476562 C 788.027344 682.449219 787.601562 680.433594 787.113281 678.429688 C 786.628906 676.429688 786.085938 674.441406 785.480469 672.472656 C 784.875 670.5 784.210938 668.550781 783.492188 666.621094 C 782.027344 662.921875 780.496094 659.246094 778.894531 655.605469 C 777.292969 651.960938 775.625 648.347656 773.886719 644.765625 C 772.148438 641.1875 770.347656 637.640625 768.476562 634.125 C 766.609375 630.613281 764.671875 627.132812 762.671875 623.691406 C 760.671875 620.253906 758.609375 616.847656 756.484375 613.484375 C 754.355469 610.121094 752.167969 606.796875 749.914062 603.515625 C 747.664062 600.234375 745.351562 596.996094 742.976562 593.800781 C 740.605469 590.605469 738.171875 587.453125 735.679688 584.351562 C 733.191406 581.246094 730.640625 578.1875 728.035156 575.179688 C 725.429688 572.171875 722.769531 569.210938 720.054688 566.300781 C 717.335938 563.394531 714.566406 560.535156 711.742188 557.730469 C 708.921875 554.921875 706.046875 552.171875 703.117188 549.472656 C 700.191406 546.773438 697.214844 544.132812 694.191406 541.546875 C 691.164062 538.957031 688.09375 536.429688 684.972656 533.957031 C 681.851562 531.484375 678.6875 529.074219 675.476562 526.71875 C 672.265625 524.367188 669.011719 522.074219 665.714844 519.84375 C 662.417969 517.609375 659.082031 515.441406 655.703125 513.335938 C 652.328125 511.226562 648.910156 509.183594 645.457031 507.207031 C 642 505.226562 638.511719 503.3125 634.984375 501.464844 C 631.460938 499.617188 627.902344 497.835938 624.308594 496.121094 C 620.714844 494.40625 617.089844 492.757812 613.4375 491.179688 C 609.78125 489.601562 606.101562 488.089844 602.390625 486.648438 C 598.679688 485.207031 594.941406 483.835938 591.179688 482.53125 C 587.417969 481.230469 583.632812 480 579.824219 478.839844 C 576.015625 477.679688 572.1875 476.589844 568.335938 475.574219 C 564.488281 474.558594 560.621094 473.613281 556.734375 472.742188 C 552.851562 471.871094 548.953125 471.070312 545.035156 470.34375 C 541.121094 469.617188 537.195312 468.964844 533.257812 468.386719 C 529.316406 467.808594 525.367188 467.300781 521.410156 466.871094 C 517.453125 466.441406 513.488281 466.082031 509.515625 465.800781 C 505.546875 465.515625 501.570312 465.308594 497.59375 465.175781 C 493.613281 465.039062 489.632812 464.980469 485.652344 464.996094 L 321.957031 464.996094 C 317.980469 464.992188 314.003906 465.066406 310.027344 465.214844 C 306.050781 465.363281 302.078125 465.582031 298.113281 465.878906 C 294.144531 466.171875 290.183594 466.542969 286.230469 466.984375 C 282.277344 467.425781 278.332031 467.941406 274.398438 468.53125 C 270.460938 469.121094 266.539062 469.78125 262.628906 470.515625 C 258.71875 471.25 254.824219 472.058594 250.945312 472.9375 C 247.066406 473.820312 243.203125 474.769531 239.359375 475.792969 C 235.515625 476.816406 231.691406 477.914062 227.886719 479.078125 C 224.082031 480.246094 220.304688 481.480469 216.546875 482.785156 C 212.789062 484.09375 209.054688 485.46875 205.347656 486.914062 C 201.644531 488.359375 197.964844 489.875 194.316406 491.457031 C 190.664062 493.039062 187.046875 494.6875 183.457031 496.40625 C 179.867188 498.121094 176.3125 499.90625 172.792969 501.753906 C 169.269531 503.601562 165.78125 505.515625 162.332031 507.496094 C 158.878906 509.476562 155.46875 511.519531 152.09375 513.625 C 148.71875 515.730469 145.382812 517.898438 142.089844 520.128906 C 138.796875 522.355469 135.542969 524.648438 132.335938 527 C 129.125 529.351562 125.960938 531.757812 122.84375 534.226562 C 119.722656 536.695312 116.652344 539.222656 113.628906 541.804688 C 110.601562 544.386719 107.625 547.027344 104.699219 549.71875 C 101.773438 552.414062 98.898438 555.160156 96.074219 557.960938 C 93.25 560.761719 90.476562 563.613281 87.757812 566.519531 C 85.039062 569.421875 82.378906 572.375 79.769531 575.378906 C 77.160156 578.382812 74.609375 581.433594 72.113281 584.53125 C 69.621094 587.628906 67.183594 590.769531 64.804688 593.960938 C 62.429688 597.148438 60.109375 600.378906 57.855469 603.652344 C 55.597656 606.929688 53.402344 610.246094 51.265625 613.601562 C 49.132812 616.957031 47.0625 620.351562 45.054688 623.785156 C 43.046875 627.21875 41.105469 630.6875 39.226562 634.195312 C 37.347656 637.699219 35.535156 641.238281 33.789062 644.8125 C 32.042969 648.386719 30.363281 651.988281 28.753906 655.625 C 27.140625 659.261719 25.597656 662.925781 24.121094 666.617188 C 23.398438 668.550781 22.734375 670.5 22.128906 672.46875 C 21.523438 674.441406 20.980469 676.425781 20.492188 678.429688 C 20.007812 680.433594 19.582031 682.449219 19.21875 684.476562 C 18.851562 686.503906 18.546875 688.542969 18.304688 690.589844 C 18.0625 692.636719 17.882812 694.6875 17.761719 696.746094 C 17.640625 698.800781 17.582031 700.859375 17.585938 702.921875 C 17.589844 704.984375 17.65625 707.042969 17.785156 709.097656 C 17.910156 711.15625 18.101562 713.207031 18.351562 715.253906 C 18.601562 717.296875 18.910156 719.335938 19.285156 721.363281 C 19.65625 723.390625 20.089844 725.402344 20.582031 727.402344 C 21.074219 729.40625 21.628906 731.390625 22.238281 733.359375 C 22.851562 735.324219 23.523438 737.273438 24.25 739.203125 C 24.980469 741.128906 25.765625 743.035156 26.609375 744.914062 C 27.453125 746.796875 28.351562 748.648438 29.304688 750.476562 C 30.261719 752.300781 31.269531 754.097656 32.332031 755.867188 C 33.390625 757.632812 34.507812 759.367188 35.671875 761.066406 C 36.839844 762.765625 38.054688 764.429688 39.320312 766.054688 C 40.585938 767.683594 41.898438 769.269531 43.257812 770.816406 C 44.621094 772.367188 46.027344 773.871094 47.476562 775.335938 C 48.929688 776.800781 50.421875 778.21875 51.960938 779.59375 C 53.496094 780.96875 55.070312 782.296875 56.6875 783.574219 C 58.304688 784.855469 59.957031 786.085938 61.644531 787.265625 C 63.335938 788.449219 65.058594 789.578125 66.816406 790.65625 C 68.574219 791.730469 70.363281 792.757812 72.179688 793.726562 C 74 794.699219 75.847656 795.613281 77.71875 796.472656 C 79.59375 797.332031 81.492188 798.136719 83.414062 798.882812 C 85.335938 799.628906 87.277344 800.316406 89.242188 800.945312 C 91.203125 801.574219 93.183594 802.144531 95.183594 802.65625 C 97.179688 803.167969 99.191406 803.621094 101.214844 804.011719 C 103.238281 804.402344 105.273438 804.730469 107.316406 805 C 109.363281 805.269531 111.414062 805.476562 113.46875 805.621094 C 115.527344 805.769531 117.585938 805.851562 119.648438 805.875 Z M 119.648438 805.875 " fill-opacity="1" fill-rule="nonzero"/></svg>